<svg width="20" height="20" viewBox="0 0 20 20" fill="none" xmlns="http://www.w3.org/2000/svg">
<path d="M18.7342 12.2134C18.3643 11.3983 18.4954 10.557 18.6226 9.74354C18.8179 8.48603 18.7671 6.94505 16.7385 6.04292C16.8724 5.56312 17.4817 5.01191 17.0699 4.81719L14.6553 3.66955C14.1286 3.41851 12.7506 3.47263 12.5899 3.80234C12.4287 4.13206 11.9851 4.81939 13.1121 5.0755C14.2402 5.33269 15.2913 6.63596 15.2913 6.63596C15.6712 6.99972 16.1405 7.0728 16.4473 7.22287C17.5821 7.77744 17.5062 8.32531 17.5241 9.52708C17.5375 10.4604 17.2027 11.5975 17.7467 12.797C18.4792 14.4144 18.8563 15.697 18.2248 16.3079C17.4493 17.0605 16.4015 16.8212 15.741 16.3883C14.8494 15.8041 14.5013 14.3904 14.5827 12.6809C14.6285 11.713 14.677 10.7121 14.3863 9.85791C13.7437 7.96548 12.7059 8.2277 12.6156 8.2277L11.7396 8.22659V1.51494C11.7396 1.12218 11.3959 0.800781 10.9976 0.800781H2.74108C2.34216 0.800781 2.01747 1.12214 2.01747 1.51491V17.3685H1.04337C1.04337 17.3685 0.320312 17.3685 0.320312 18.0826V19.0825H13.4546V18.0826C13.4546 18.0826 13.4725 17.3685 12.7489 17.3685H11.7397V9.36972L12.6077 9.37029C12.7137 9.37254 13.0429 9.41494 13.3475 10.3121C13.5517 10.9129 13.511 11.7386 13.4703 12.614C13.3893 14.2811 13.2995 16.1718 14.9409 17.2452C15.5981 17.6759 16.3156 17.8891 17.0107 17.8891C17.8353 17.8891 18.3876 17.7306 19.0003 17.137C20.6216 15.5704 19.1336 13.0926 18.7342 12.2134ZM15.7733 6.29176C15.5736 6.29176 15.4112 6.1322 15.4112 5.93468C15.4112 5.73776 15.5736 5.57763 15.7733 5.57763C15.9742 5.57763 16.1348 5.73774 16.1348 5.93468C16.1348 6.13217 15.9742 6.29176 15.7733 6.29176ZM3.7353 3.17469C3.7353 2.81094 4.03601 2.51357 4.40533 2.51357H9.37017C9.7384 2.51357 10.0402 2.81094 10.0402 3.17469V6.99638C10.0402 7.35956 9.7384 7.65751 9.37017 7.65751H4.40533C4.03598 7.65751 3.7353 7.35956 3.7353 6.99638V3.17469Z" fill="white"/>
</svg>
