<svg width="24" height="24" viewBox="0 0 24 24" fill="none" xmlns="http://www.w3.org/2000/svg">
<path d="M18.27 6.4325H17.88C17.55 4.5225 15.99 3.0625 14.12 3.0625H4.29C3.03 3.0625 2 4.1625 2 5.5025C2 5.5925 2.02 5.6725 2.03 5.7625C2.02 5.8025 2 5.8425 2 5.8925V17.1925C2 19.2525 3.68 20.9325 5.73 20.9325H18.27C20.32 20.9325 22 19.2525 22 17.1925V10.1625C22 8.10251 20.32 6.4325 18.27 6.4325ZM17.71 14.9425C17.02 14.9425 16.45 14.3825 16.45 13.6825C16.45 12.9825 17.02 12.4125 17.71 12.4125C18.41 12.4125 18.98 12.9825 18.98 13.6825C18.98 14.3825 18.41 14.9425 17.71 14.9425ZM4.29 4.5625H14.12C15.17 4.5625 16.05 5.3525 16.34 6.4325H4.29C3.85 6.4325 3.5 6.0125 3.5 5.5025C3.5 4.9825 3.85 4.5625 4.29 4.5625Z" fill="#F33928"/>
</svg>
