<svg width="15" height="15" viewBox="0 0 15 15" fill="none" xmlns="http://www.w3.org/2000/svg">
<g clip-path="url(#clip0_4639_21712)">
<path d="M3.125 3.1022V3.7272H4.375V3.1022H3.125ZM13.125 5.625C13.125 5.97018 13.4048 6.25 13.75 6.25C14.0952 6.25 14.375 5.97018 14.375 5.625H13.125ZM4.375 3.1022V2.1875H3.125V3.1022H4.375ZM4.375 2.1875C4.375 2.01491 4.5149 1.875 4.6875 1.875V0.625C3.82453 0.625 3.125 1.32456 3.125 2.1875H4.375ZM4.6875 1.875H12.8125V0.625H4.6875V1.875ZM12.8125 1.875C12.9851 1.875 13.125 2.01491 13.125 2.1875H14.375C14.375 1.32456 13.6755 0.625 12.8125 0.625V1.875ZM13.125 2.1875V5.625H14.375V2.1875H13.125Z" fill="white" fill-opacity="0.6"/>
<path d="M11.2539 11.25H12.811C13.3288 11.25 13.7485 10.8303 13.7485 10.3125V8.28125" stroke="white" stroke-opacity="0.6" stroke-width="1.25" stroke-linecap="round"/>
<path d="M10.0586 4.0625H2.44141C1.956 4.0625 1.5625 4.456 1.5625 4.94141V12.5586C1.5625 13.044 1.956 13.4375 2.44141 13.4375H10.0586C10.544 13.4375 10.9375 13.044 10.9375 12.5586V4.94141C10.9375 4.456 10.544 4.0625 10.0586 4.0625Z" stroke="white" stroke-opacity="0.6" stroke-width="1.25" stroke-linejoin="round"/>
</g>
<defs>
<clipPath id="clip0_4639_21712">
<rect width="15" height="15" fill="white"/>
</clipPath>
</defs>
</svg>
