<svg width="20" height="21" viewBox="0 0 20 21" fill="none" xmlns="http://www.w3.org/2000/svg">
<path d="M9.49697 14.0632C7.30014 14.0678 5.38381 12.5969 4.85346 10.4995C4.73796 10.0772 4.29482 9.82667 3.86347 9.94036C3.44626 10.0517 3.19169 10.467 3.28833 10.8846C3.99782 13.6896 6.56001 15.6548 9.49697 15.6501C9.94247 15.6617 10.3125 15.3137 10.322 14.8752C10.3337 14.4367 9.98018 14.0725 9.53469 14.0632H9.49697ZM19.7528 19.6314L16.1346 16.0074C19.7622 12.5041 19.9414 6.8059 16.54 3.0891C13.1387 -0.627704 7.36378 -1.04764 3.44626 2.14018C-0.471269 5.32799 -1.1454 10.9867 1.9212 14.9773C4.98781 18.9679 10.7062 19.8681 14.8853 17.0236L18.6002 20.7451C18.9019 21.0676 19.4134 21.0861 19.741 20.7891C20.0686 20.4922 20.0875 19.9887 19.7858 19.6662C19.7764 19.6523 19.7646 19.643 19.7528 19.6314ZM1.62892 9.35801C1.62421 5.08206 5.14338 1.60887 9.48754 1.60423C13.8317 1.59959 17.3603 5.0635 17.365 9.33945C17.3697 13.6154 13.8506 17.0886 9.5064 17.0932H9.49697C5.15752 17.0909 1.63599 13.6316 1.62892 9.35801Z" fill="#FF7001"/>
</svg>
