<svg width="20" height="20" viewBox="0 0 20 20" fill="none" xmlns="http://www.w3.org/2000/svg">
<circle cx="9.99935" cy="9.9974" r="8.33333" fill="#F7F7F7" stroke="#F7F7F7" stroke-width="1.66667"/>
<path d="M12.2459 5.35677L11.266 5.11543L10.8564 6.6581L10.134 6.4809L10.5436 4.93824L9.55651 4.69531L9.15201 6.21956L7.24246 5.77594L6.97367 6.78829L7.81318 6.9947C7.86356 7.00709 7.91091 7.02892 7.95253 7.05894C7.99414 7.08895 8.0292 7.12657 8.05571 7.16964C8.08222 7.21271 8.09966 7.26039 8.10702 7.30995C8.11438 7.35951 8.11153 7.40999 8.09862 7.45849L7.01143 11.5538C6.98828 11.641 6.9301 11.7158 6.84971 11.7617C6.76931 11.8076 6.67326 11.8209 6.58269 11.7986L5.89423 11.6292L5.41602 12.656L7.33282 13.1279L6.93047 14.6429L7.90338 14.8824L8.30574 13.3673L9.02817 13.5452L8.62581 15.0602L9.60565 15.3014L10.0062 13.793C11.6882 14.1999 13.0359 13.8859 13.429 12.4051C13.8149 10.952 12.9568 10.6269 12.533 10.3466C13.1302 10.1635 13.4922 9.9338 13.6873 9.19803C14.0529 7.82097 12.7216 7.12442 11.8348 6.90611L12.2459 5.35677ZM11.5149 11.9269C11.2809 12.8084 10.0731 12.6505 8.5925 12.2861L9.13008 10.2614C10.8324 10.6802 11.7558 11.0178 11.5149 11.9269ZM11.8472 8.92494C11.6794 9.55639 11.1635 9.80646 9.3682 9.36459L9.85944 7.51295C11.1328 7.82685 12.0526 8.14821 11.8472 8.92494Z" fill="#010101"/>
</svg>
