<svg width="18" height="18" viewBox="0 0 18 18" fill="none" xmlns="http://www.w3.org/2000/svg">
<path fill-rule="evenodd" clip-rule="evenodd" d="M7.92065 1.9349C7.36204 1.9349 6.8868 2.32308 6.7534 2.84628H11.239C11.1056 2.32308 10.6303 1.9349 10.0717 1.9349H7.92065ZM12.5072 2.84908H14.158C15.9089 2.84908 17.3346 4.29211 17.3346 6.06425C17.3346 6.06425 17.2846 6.81446 17.2679 7.85918C17.2663 7.94188 17.2262 8.02289 17.1604 8.07184C16.7593 8.36804 16.3925 8.61276 16.3591 8.62964C14.9751 9.55791 13.3668 10.2111 11.6535 10.536C11.5417 10.5579 11.4317 10.4997 11.375 10.4001C10.8947 9.56803 9.99763 9.02626 8.99713 9.02626C8.0033 9.02626 7.09785 9.56213 6.60344 10.395C6.54591 10.4929 6.43752 10.5495 6.32663 10.5284C4.62745 10.2026 3.01914 9.55031 1.64346 8.63808L0.843056 8.08112C0.776356 8.03893 0.734669 7.96298 0.734669 7.87859C0.709656 7.44821 0.667969 6.06425 0.667969 6.06425C0.667969 4.29211 2.09368 2.84908 3.84456 2.84908H5.48704C5.64546 1.62546 6.67097 0.671875 7.9216 0.671875H10.0727C11.3233 0.671875 12.3488 1.62546 12.5072 2.84908ZM17.0503 9.68325L17.017 9.70013C15.3328 10.8309 13.3068 11.582 11.1807 11.8942C10.8806 11.9364 10.5804 11.7423 10.497 11.4385C10.3136 10.7465 9.72166 10.2908 9.01297 10.2908H9.00463H8.98796C8.27927 10.2908 7.68731 10.7465 7.50388 11.4385C7.42051 11.7423 7.12036 11.9364 6.82021 11.8942C4.69414 11.582 2.66813 10.8309 0.983956 9.70013C0.975619 9.69169 0.892244 9.64106 0.825544 9.68325C0.750506 9.72544 0.750506 9.82671 0.750506 9.82671L0.808869 14.1305C0.808869 15.9026 2.22624 17.3372 3.97712 17.3372H14.0155C15.7663 17.3372 17.1837 15.9026 17.1837 14.1305L17.2504 9.82671C17.2504 9.82671 17.2504 9.72544 17.1754 9.68325C17.1337 9.65793 17.0837 9.66637 17.0503 9.68325ZM9.62139 13.2176C9.62139 13.572 9.34626 13.8505 8.99608 13.8505C8.65424 13.8505 8.37077 13.572 8.37077 13.2176V12.129C8.37077 11.783 8.65424 11.4961 8.99608 11.4961C9.34626 11.4961 9.62139 11.783 9.62139 12.129V13.2176Z" fill="#F7F7F7"/>
</svg>
