<svg width="16" height="18" viewBox="0 0 16 18" fill="none" xmlns="http://www.w3.org/2000/svg">
<path d="M11.0774 0.664062C8.63509 0.664062 6.655 1.34614 6.655 2.18767V4.74998C6.655 4.79775 6.66315 4.84507 6.6766 4.89173C6.89197 5.634 8.77947 6.21452 11.0774 6.21452C13.3753 6.21452 15.2628 5.634 15.4782 4.89175C15.4917 4.84507 15.4998 4.79775 15.4998 4.74998V2.18767C15.4998 1.34614 13.5198 0.664062 11.0774 0.664062ZM14.7109 2.38968C14.5244 2.52178 14.2477 2.64885 13.9105 2.75726C13.147 3.00284 12.1408 3.13813 11.0774 3.13813C10.0139 3.13813 9.00775 3.00284 8.24429 2.75726C7.90714 2.64887 7.63041 2.52178 7.44393 2.38968C7.30019 2.28796 7.25166 2.21164 7.24362 2.18767C7.25166 2.16379 7.30019 2.08749 7.44393 1.98567C7.63041 1.85364 7.90714 1.72655 8.24429 1.61809C9.00777 1.37248 10.0139 1.23719 11.0774 1.23719C12.1408 1.23719 13.147 1.37248 13.9106 1.61809C14.2477 1.72656 14.5244 1.85365 14.7109 1.98567C14.8546 2.08747 14.9031 2.16377 14.9112 2.18767C14.9031 2.21156 14.8546 2.28796 14.7109 2.38968ZM13.0935 6.34499C12.4884 6.45201 11.8044 6.51374 11.0774 6.51374C10.3504 6.51374 9.66641 6.45201 9.06144 6.34497C7.63379 6.09238 6.655 5.6763 6.655 5.08521V6.09065C6.12296 6.01252 5.53732 5.96922 4.92246 5.96922C2.4801 5.96922 0.5 6.65129 0.5 7.49282V10.0552C0.5 10.103 0.508145 10.1502 0.521596 10.1969C0.737054 10.9392 2.62447 11.5198 4.92246 11.5198C5.53744 11.5198 6.12306 11.4781 6.655 11.403C6.73954 11.3911 6.82269 11.3783 6.90443 11.3646C7.02962 11.3439 7.15433 11.3206 7.27849 11.2946C8.40569 11.0591 9.18902 10.6594 9.3232 10.1969C9.33668 10.1502 9.3448 10.103 9.3448 10.0552V10.3984C9.3448 10.8755 8.70682 11.2386 7.70973 11.4938C7.56364 11.5313 7.40978 11.5663 7.24912 11.5991C7.14584 11.6201 7.04228 11.6398 6.93846 11.6582C6.84585 11.6745 6.75122 11.6897 6.655 11.7039C6.12278 11.7824 5.53817 11.8268 4.92246 11.8268C4.19542 11.8268 3.51143 11.7652 2.90645 11.6582C1.47879 11.4055 0.5 10.9894 0.5 10.3983V12.9607C0.5 13.0085 0.508145 13.0557 0.521596 13.1024C0.737054 13.8446 2.62458 14.4253 4.92246 14.4253C5.79322 14.4253 6.60486 14.3419 7.28916 14.1979C8.41055 13.962 9.18948 13.5634 9.3233 13.1024C9.33668 13.0557 9.3448 13.0085 9.3448 12.9607V13.3038C9.3448 13.7791 8.71206 14.1411 7.72215 14.3961C7.48077 14.4583 7.21827 14.5141 6.93846 14.5636C6.33339 14.6707 5.64938 14.7323 4.92245 14.7323C4.19552 14.7323 3.51153 14.6707 2.90645 14.5636C1.47879 14.311 0.500085 13.8948 0.500085 13.3038V15.8662C0.500085 15.914 0.508247 15.9612 0.521698 16.0079C0.737071 16.7501 2.62457 17.3307 4.92245 17.3307C7.22041 17.3307 9.10783 16.7501 9.3233 16.0078C9.33675 15.9612 9.3449 15.9139 9.3449 15.8662V14.7903C9.87693 14.8655 10.4625 14.907 11.0775 14.907C13.3754 14.907 15.2629 14.3265 15.4783 13.5843C15.4918 13.5376 15.4999 13.4903 15.4999 13.4425V10.8802C15.4999 11.4713 14.5212 11.8874 13.0935 12.1401C12.4885 12.2471 11.8045 12.3087 11.0775 12.3087C10.4618 12.3087 9.87714 12.2643 9.3449 12.1858V11.8928C9.87693 11.9679 10.4625 12.0096 11.0775 12.0096C13.3754 12.0096 15.2629 11.4291 15.4783 10.6868C15.4918 10.6401 15.4999 10.5928 15.4999 10.5451V7.98262C15.4999 8.57372 14.5212 8.98991 13.0935 9.24252C12.4885 9.34954 11.8045 9.41115 11.0775 9.41115C10.4618 9.41115 9.87714 9.36676 9.3449 9.28828V8.99528C9.87693 9.07049 10.4626 9.11207 11.0775 9.11207C13.3754 9.11207 15.2629 8.53153 15.4784 7.78927C15.4919 7.7426 15.5 7.69529 15.5 7.64752V5.08521C15.4998 5.6763 14.5211 6.09238 13.0935 6.34499ZM8.55578 7.69484C8.3693 7.82694 8.09259 7.95403 7.75554 8.0624C7.53615 8.13299 7.29654 8.19443 7.04141 8.24619C6.94665 8.2654 6.85156 8.28297 6.75617 8.2989C6.72271 8.30454 6.68895 8.31002 6.655 8.31529C6.11923 8.39898 5.53023 8.44331 4.92238 8.44331C3.85895 8.44331 2.85277 8.30801 2.08918 8.0624C1.75214 7.95403 1.47541 7.82686 1.28893 7.69484C1.14519 7.59311 1.09666 7.51672 1.08861 7.49282C1.09666 7.46885 1.14519 7.39255 1.28893 7.29081C1.47541 7.15872 1.75214 7.03163 2.08918 6.92324C2.85277 6.67763 3.85895 6.54238 4.92236 6.54238C5.53023 6.54238 6.11923 6.58666 6.655 6.67036C7.05666 6.73306 7.42842 6.81804 7.75554 6.92324C8.09259 7.03163 8.3693 7.15872 8.55578 7.29071C8.69962 7.39255 8.74809 7.46885 8.75611 7.49284C8.74807 7.51679 8.69962 7.59311 8.55578 7.69484Z" fill="#F7F7F7"/>
</svg>
