<svg width="20" height="20" viewBox="0 0 20 20" fill="none" xmlns="http://www.w3.org/2000/svg">
<path d="M10 20C15.5225 20 20 15.5225 20 10C20 4.4775 15.5225 0 10 0C4.4775 0 0 4.4775 0 10C0 15.5225 4.4775 20 10 20ZM10 18.3333C5.3975 18.3333 1.66667 14.6025 1.66667 10C1.66667 5.3975 5.3975 1.66667 10 1.66667C14.6025 1.66667 18.3333 5.3975 18.3333 10C18.3333 14.6025 14.6025 18.3333 10 18.3333ZM10.8333 9.16667C10.8333 8.94565 10.7455 8.73369 10.5893 8.57741C10.433 8.42113 10.221 8.33333 10 8.33333C9.77899 8.33333 9.56703 8.42113 9.41074 8.57741C9.25446 8.73369 9.16667 8.94565 9.16667 9.16667V15C9.16667 15.221 9.25446 15.433 9.41074 15.5893C9.56703 15.7455 9.77899 15.8333 10 15.8333C10.221 15.8333 10.433 15.7455 10.5893 15.5893C10.7455 15.433 10.8333 15.221 10.8333 15V9.16667ZM10.0833 6.5C10.3928 6.5 10.6895 6.37708 10.9083 6.15829C11.1271 5.9395 11.25 5.64275 11.25 5.33333C11.25 5.02391 11.1271 4.72717 10.9083 4.50838C10.6895 4.28958 10.3928 4.16667 10.0833 4.16667C9.77391 4.16667 9.47717 4.28958 9.25838 4.50838C9.03958 4.72717 8.91667 5.02391 8.91667 5.33333C8.91667 5.64275 9.03958 5.9395 9.25838 6.15829C9.47717 6.37708 9.77391 6.5 10.0833 6.5Z" fill="#F7931A"/>
</svg>
