<svg width="16" height="19" viewBox="0 0 16 19" fill="none" xmlns="http://www.w3.org/2000/svg">
<path d="M13.9195 1.35953C14.2795 1.69286 14.5662 1.96953 14.7795 2.18953C14.9929 2.40953 15.1562 2.5962 15.2695 2.74953C15.3829 2.90286 15.4529 3.03286 15.4795 3.13953C15.5062 3.2462 15.5195 3.33953 15.5195 3.41953V3.73953H12.5595C12.4262 3.73953 12.3095 3.68953 12.2095 3.58953C12.1095 3.48953 12.0262 3.37286 11.9595 3.23953C11.8929 3.1062 11.8429 2.96953 11.8095 2.82953C11.7762 2.68953 11.7595 2.57953 11.7595 2.49953V0.0195312H11.8195C11.9262 0.0195312 12.0362 0.0361979 12.1495 0.0695312C12.2629 0.102865 12.3929 0.166198 12.5395 0.259531C12.6862 0.352865 12.8695 0.486198 13.0895 0.659531C13.3095 0.832865 13.5862 1.0662 13.9195 1.35953ZM10.4995 2.51953C10.4995 2.7862 10.5395 3.06286 10.6195 3.34953C10.6995 3.6362 10.8262 3.90286 10.9995 4.14953C11.1729 4.3962 11.3929 4.59953 11.6595 4.75953C11.9262 4.91953 12.2395 4.99953 12.5995 4.99953H15.5195V16.2795C15.5195 16.6662 15.4429 17.0129 15.2895 17.3195C15.1362 17.6262 14.9329 17.8862 14.6795 18.0995C14.4262 18.3129 14.1462 18.4795 13.8395 18.5995C13.5329 18.7195 13.2329 18.7795 12.9395 18.7795H3.09953C2.8462 18.7795 2.56953 18.7062 2.26953 18.5595C1.96953 18.4129 1.68953 18.2195 1.42953 17.9795C1.16953 17.7395 0.952864 17.4662 0.779531 17.1595C0.606198 16.8529 0.519531 16.5329 0.519531 16.1995V2.59953C0.519531 2.31953 0.582865 2.02953 0.709531 1.72953C0.836198 1.42953 1.00953 1.15286 1.22953 0.899531C1.44953 0.646198 1.69953 0.436198 1.97953 0.269531C2.25953 0.102865 2.55286 0.0195313 2.85953 0.0195312H10.4995V2.51953ZM11.7595 14.9995C12.1062 14.9995 12.3995 14.8762 12.6395 14.6295C12.8795 14.3829 12.9995 14.0862 12.9995 13.7395C12.9995 13.3929 12.8795 13.0995 12.6395 12.8595C12.3995 12.6195 12.1062 12.4995 11.7595 12.4995H4.25953C3.91286 12.4995 3.61953 12.6195 3.37953 12.8595C3.13953 13.0995 3.01953 13.3929 3.01953 13.7395C3.01953 14.0862 3.13953 14.3829 3.37953 14.6295C3.61953 14.8762 3.91286 14.9995 4.25953 14.9995H11.7595ZM12.9995 8.75953C12.9995 8.41286 12.8795 8.1162 12.6395 7.86953C12.3995 7.62286 12.1062 7.49953 11.7595 7.49953H4.25953C3.91286 7.49953 3.61953 7.62286 3.37953 7.86953C3.13953 8.1162 3.01953 8.41286 3.01953 8.75953C3.01953 9.1062 3.13953 9.39953 3.37953 9.63953C3.61953 9.87953 3.91286 9.99953 4.25953 9.99953H11.7595C12.1062 9.99953 12.3995 9.87953 12.6395 9.63953C12.8795 9.39953 12.9995 9.1062 12.9995 8.75953Z" fill="white"/>
</svg>
