<svg width="22" height="22" viewBox="0 0 22 22" fill="none" xmlns="http://www.w3.org/2000/svg">
<path d="M7.40898 17.4531C7.40898 17.5397 7.32239 17.5829 7.19261 17.5829C7.06282 17.6262 6.97624 17.5397 6.97624 17.4531C6.97624 17.3666 7.06282 17.28 7.19261 17.28C7.32239 17.28 7.40898 17.3666 7.40898 17.4531ZM6.06762 17.2368C6.06762 17.3233 6.15415 17.4531 6.28393 17.4531C6.37052 17.4964 6.5003 17.4531 6.54356 17.3666C6.54356 17.28 6.5003 17.1935 6.37052 17.1502C6.24067 17.107 6.11089 17.1502 6.06762 17.2368ZM8.0147 17.1935C7.88492 17.1935 7.79839 17.28 7.79839 17.4099C7.79839 17.4964 7.92818 17.5397 8.05802 17.4964C8.18781 17.4531 8.27433 17.4099 8.23107 17.3233C8.23107 17.2368 8.10128 17.1502 8.0147 17.1935ZM10.8273 0.578125C4.85605 0.578125 0.269531 5.16465 0.269531 11.1358C0.269531 15.9387 3.25513 20.0493 7.58202 21.5205C8.14455 21.607 8.31759 21.2608 8.31759 21.0012C8.31759 20.6983 8.31759 19.2272 8.31759 18.3185C8.31759 18.3185 5.28879 18.9675 4.63975 17.0204C4.63975 17.0204 4.16375 15.7656 3.47144 15.4627C3.47144 15.4627 2.47624 14.7704 3.5147 14.7704C3.5147 14.7704 4.59649 14.857 5.20221 15.8954C6.15415 17.5829 7.71181 17.107 8.36085 16.8041C8.44744 16.1118 8.70701 15.6358 9.05316 15.333C6.63008 15.0733 4.16375 14.7272 4.16375 10.5733C4.16375 9.36176 4.5099 8.79929 5.20221 8.0204C5.07242 7.71757 4.72627 6.59253 5.33206 5.07812C6.19741 4.81849 8.31759 6.24637 8.31759 6.24637C9.18301 5.9868 10.0916 5.90022 11.0003 5.90022C11.9522 5.90022 12.8609 5.9868 13.7263 6.24637C13.7263 6.24637 15.8032 4.77523 16.7118 5.07812C17.3176 6.59253 16.9282 7.71757 16.8417 8.0204C17.534 8.79929 17.9666 9.36176 17.9666 10.5733C17.9666 14.7272 15.4138 15.0733 12.9907 15.333C13.3801 15.6791 13.7263 16.3281 13.7263 17.3666C13.7263 18.7945 13.683 20.6118 13.683 20.9579C13.683 21.2608 13.8993 21.607 14.4618 21.4771C18.7887 20.0493 21.7311 15.9387 21.7311 11.1358C21.7311 5.16465 16.8417 0.578125 10.8273 0.578125ZM4.46664 15.506C4.38012 15.5493 4.42338 15.6791 4.46664 15.7656C4.55316 15.8089 4.63975 15.8522 4.72627 15.8089C4.76953 15.7656 4.76953 15.6358 4.68301 15.5493C4.59649 15.506 4.5099 15.4627 4.46664 15.506ZM3.9907 15.1598C3.94744 15.2464 3.9907 15.2897 4.07722 15.333C4.16375 15.3762 4.25027 15.3762 4.29359 15.2897C4.29359 15.2464 4.25027 15.2031 4.16375 15.1598C4.07722 15.1166 4.03396 15.1166 3.9907 15.1598ZM5.37532 16.7176C5.33205 16.7608 5.33205 16.8906 5.46184 16.9771C5.54836 17.0637 5.67821 17.107 5.72147 17.0204C5.76473 16.9771 5.76473 16.8474 5.67821 16.7608C5.59162 16.6743 5.46184 16.631 5.37532 16.7176ZM4.89932 16.0685C4.81279 16.1118 4.81279 16.2416 4.89932 16.3281C4.9859 16.4147 5.07242 16.4579 5.15895 16.4147C5.20221 16.3714 5.20221 16.2416 5.15895 16.155C5.07242 16.0685 4.9859 16.0253 4.89932 16.0685Z" fill="#F33928"/>
</svg>
