<svg width="26" height="20" viewBox="0 0 26 20" fill="none" xmlns="http://www.w3.org/2000/svg">
<path d="M21.9363 2.13005C21.9363 2.13005 21.9363 2.13005 21.8936 2.13005C20.2751 1.36333 18.5714 0.852243 16.825 0.554083C16.7825 0.511498 16.7399 0.554083 16.7399 0.554083C16.4844 0.98 16.2714 1.44856 16.101 1.87448C14.1843 1.57632 12.2676 1.57632 10.351 1.87448C10.1805 1.44856 9.96756 0.98 9.71205 0.554083C9.71205 0.554083 9.66946 0.511498 9.62681 0.554083C7.8805 0.852243 6.17678 1.36333 4.55822 2.13005C4.51564 2.13005 4.51564 2.13005 4.51564 2.13005C1.27858 6.98566 0.384121 11.7135 0.810055 16.3988C0.810055 16.3988 0.810055 16.4414 0.852647 16.4414C2.72675 17.8469 4.85638 18.9117 7.11384 19.5932C7.11384 19.6358 7.15643 19.5932 7.19901 19.5932C7.66757 18.9117 8.09349 18.2302 8.47682 17.5062C8.47682 17.4636 8.47682 17.421 8.43424 17.3784C7.75275 17.1228 7.07126 16.8247 6.47494 16.4414C6.43235 16.4414 6.38977 16.3561 6.47494 16.3135C6.60269 16.2284 6.73051 16.1432 6.85827 16.0154C6.85827 16.0154 6.90085 16.0154 6.9435 16.0154C11.0324 17.8895 15.4621 17.8895 19.5084 16.0154C19.551 16.0154 19.551 16.0154 19.5937 16.0154C19.7214 16.1432 19.8492 16.2284 19.977 16.3135C20.0196 16.3561 20.0196 16.4414 19.977 16.4414C19.3381 16.8247 18.6992 17.1228 18.0177 17.3784C17.9751 17.421 17.9751 17.4636 17.9751 17.5062C18.3584 18.2302 18.7843 18.9117 19.2529 19.5932C19.2955 19.5932 19.2955 19.6358 19.3381 19.5932C21.5955 18.9117 23.7252 17.8469 25.5993 16.4414C25.6418 16.4414 25.6418 16.3988 25.6418 16.3988C26.153 10.9894 24.7474 6.30417 21.9363 2.13005ZM9.07314 13.545C7.83792 13.545 6.81568 12.395 6.81568 11.032C6.81568 9.62645 7.83792 8.51904 9.07314 8.51904C10.351 8.51904 11.3305 9.62645 11.3305 11.032C11.3305 12.395 10.3083 13.545 9.07314 13.545ZM17.3788 13.545C16.1436 13.545 15.164 12.395 15.164 11.032C15.164 9.62645 16.1436 8.51904 17.3788 8.51904C18.6566 8.51904 19.6788 9.62645 19.6362 11.032C19.6362 12.395 18.6566 13.545 17.3788 13.545Z" fill="#F33928"/>
</svg>
