<svg width="12" height="16" viewBox="0 0 12 16" fill="none" xmlns="http://www.w3.org/2000/svg">
<path d="M0.667969 1.32812H11.3346" stroke="#F33928" stroke-width="1.33333" stroke-linecap="round" stroke-linejoin="round"/>
<path d="M0.667969 14.6641H11.3346" stroke="#F33928" stroke-width="1.33333" stroke-linecap="round" stroke-linejoin="round"/>
<path d="M9.02871 4.72272L6.97537 6.94253C6.44204 7.51911 5.57537 7.51911 5.03537 6.94253L2.98204 4.72272C2.72204 4.44164 2.58203 4.06686 2.58203 3.67767V2.81281C2.58203 1.99119 3.19536 1.32812 3.95536 1.32812H8.06871C8.82871 1.32812 9.44204 1.99119 9.44204 2.81281V3.67767C9.4287 4.06686 9.28204 4.44885 9.02871 4.72272Z" fill="#F33928" stroke="#F33928" stroke-width="1.33333" stroke-linecap="round" stroke-linejoin="round"/>
<path d="M6.97511 6.94377L8.36178 5.39062H3.64844L5.03511 6.94377C5.57511 7.52034 6.44177 7.52034 6.97511 6.94377Z" fill="#262626" stroke="#F33928" stroke-width="1.33333" stroke-linecap="round" stroke-linejoin="round"/>
<path d="M9.42951 12.3061V14.5043H2.57617V12.3061C2.57617 11.9169 2.72284 11.5349 2.97618 11.261L5.03617 9.03399C5.56951 8.45742 6.43617 8.45742 6.9695 9.03399L9.02951 11.261C9.28284 11.5349 9.42951 11.9169 9.42951 12.3061Z" fill="#F33928" stroke="#F33928" stroke-width="1.33333" stroke-linecap="round" stroke-linejoin="round"/>
<path d="M6.00195 11.5065C5.86862 11.5065 5.74195 11.4488 5.64862 11.3479C5.55529 11.247 5.50195 11.1101 5.50195 10.966C5.50195 10.8939 5.51528 10.829 5.54195 10.757C5.56862 10.6921 5.60195 10.6344 5.64862 10.584C5.78195 10.4326 6.00862 10.3894 6.19528 10.4687C6.25528 10.4975 6.30862 10.5335 6.35529 10.584C6.40195 10.6344 6.43529 10.6921 6.46195 10.757C6.48862 10.829 6.50195 10.8939 6.50195 10.966C6.50195 11.1101 6.44862 11.247 6.35529 11.3479C6.26195 11.4488 6.13529 11.5065 6.00195 11.5065Z" fill="#262626"/>
<path d="M9.52131 12.6641C9.52131 13.4857 9.2413 14.1487 8.4813 14.1487H3.70797C2.94797 14.1487 2.66797 13.4857 2.66797 12.6641H9.52131Z" fill="#262626"/>
</svg>
