<svg width="84" height="84" viewBox="0 0 84 84" fill="none" xmlns="http://www.w3.org/2000/svg">
<path d="M77.7507 63.4162C77.3241 64.1269 76.6327 64.639 75.8285 64.8399C75.0244 65.0408 74.1733 64.9141 73.4626 64.4875C72.7519 64.061 72.2398 63.3695 72.0389 62.5654C71.838 61.7612 71.9647 60.9102 72.3913 60.1995C75.6907 54.704 77.4284 48.4125 77.4173 42.0026C77.4173 22.4422 61.5611 6.58594 42.0006 6.58594C22.4402 6.58594 6.58398 22.4422 6.58398 42.0026C6.58398 61.563 22.4402 77.4193 42.0006 77.4193C48.4096 77.4306 54.7003 75.6936 60.1954 72.3953C60.5473 72.1842 60.9374 72.0444 61.3433 71.984C61.7492 71.9236 62.1631 71.9438 62.5612 72.0433C62.9593 72.1428 63.3339 72.3198 63.6637 72.5641C63.9934 72.8084 64.2718 73.1153 64.4829 73.4672C64.6941 73.8191 64.8338 74.2091 64.8942 74.6151C64.9547 75.021 64.9345 75.4348 64.835 75.8329C64.7354 76.2311 64.5585 76.6057 64.3142 76.9354C64.0698 77.2652 63.763 77.5436 63.4111 77.7547C56.9446 81.6358 49.5424 83.6807 42.0006 83.6693C18.9892 83.6693 0.333984 65.0141 0.333984 42.0026C0.333984 18.9911 18.9892 0.335938 42.0006 0.335938C65.0121 0.335938 83.6673 18.9911 83.6673 42.0026C83.6673 49.6484 81.6017 56.9995 77.7507 63.4162ZM46.2225 42.0026L54.6673 50.4474C54.9483 50.7238 55.1717 51.0531 55.3248 51.4162C55.4778 51.7794 55.5575 52.1693 55.5591 52.5634C55.5607 52.9575 55.4843 53.348 55.3342 53.7125C55.1841 54.0769 54.9634 54.408 54.6847 54.6866C54.406 54.9653 54.0749 55.1861 53.7105 55.3361C53.3461 55.4862 52.9556 55.5626 52.5615 55.561C52.1673 55.5594 51.7775 55.4798 51.4143 55.3267C51.0511 55.1737 50.7218 54.9502 50.4454 54.6693L42.0006 46.2245L33.5559 54.6693C33.2795 54.9502 32.9502 55.1737 32.587 55.3267C32.2238 55.4798 31.834 55.5594 31.4399 55.561C31.0457 55.5626 30.6552 55.4862 30.2908 55.3361C29.9264 55.1861 29.5953 54.9653 29.3166 54.6866C29.0379 54.408 28.8172 54.0769 28.6671 53.7125C28.517 53.348 28.4406 52.9575 28.4422 52.5634C28.4438 52.1693 28.5235 51.7794 28.6765 51.4162C28.8296 51.0531 29.053 50.7238 29.334 50.4474L37.7788 42.0026L29.334 33.5578C29.053 33.2814 28.8296 32.9522 28.6765 32.589C28.5235 32.2258 28.4438 31.8359 28.4422 31.4418C28.4406 31.0477 28.517 30.6572 28.6671 30.2928C28.8172 29.9283 29.0379 29.5972 29.3166 29.3186C29.5953 29.0399 29.9264 28.8191 30.2908 28.6691C30.6552 28.519 31.0457 28.4426 31.4399 28.4442C31.834 28.4458 32.2238 28.5254 32.587 28.6785C32.9502 28.8315 33.2795 29.055 33.5559 29.3359L42.0006 37.7807L50.4454 29.3359C50.7218 29.055 51.0511 28.8315 51.4143 28.6785C51.7775 28.5254 52.1673 28.4458 52.5615 28.4442C52.9556 28.4426 53.3461 28.519 53.7105 28.6691C54.0749 28.8191 54.406 29.0399 54.6847 29.3186C54.9634 29.5972 55.1841 29.9283 55.3342 30.2928C55.4843 30.6572 55.5607 31.0477 55.5591 31.4418C55.5575 31.8359 55.4778 32.2258 55.3248 32.589C55.1717 32.9522 54.9483 33.2814 54.6673 33.5578L46.2225 42.0026Z" fill="#F00202"/>
</svg>
