<svg width="84" height="84" viewBox="0 0 84 84" fill="none" xmlns="http://www.w3.org/2000/svg">
<path d="M77.7507 63.4162C77.3241 64.1269 76.6327 64.639 75.8285 64.8399C75.0244 65.0408 74.1733 64.9141 73.4626 64.4875C72.7519 64.061 72.2398 63.3695 72.0389 62.5654C71.838 61.7612 71.9647 60.9102 72.3913 60.1995C75.6907 54.704 77.4284 48.4125 77.4173 42.0026C77.4173 22.4422 61.5611 6.58594 42.0007 6.58594C22.4402 6.58594 6.58398 22.4422 6.58398 42.0026C6.58398 61.563 22.4402 77.4193 42.0007 77.4193C48.4096 77.4306 54.7003 75.6936 60.1955 72.3953C60.5474 72.1842 60.9374 72.0444 61.3433 71.984C61.7492 71.9236 62.1631 71.9438 62.5612 72.0433C62.9593 72.1428 63.334 72.3198 63.6637 72.5641C63.9934 72.8084 64.2718 73.1153 64.4829 73.4672C64.6941 73.8191 64.8339 74.2091 64.8943 74.6151C64.9547 75.021 64.9345 75.4348 64.835 75.8329C64.7355 76.2311 64.5585 76.6057 64.3142 76.9354C64.0698 77.2652 63.763 77.5436 63.4111 77.7547C56.9446 81.6358 49.5424 83.6807 42.0007 83.6693C18.9892 83.6693 0.333984 65.0141 0.333984 42.0026C0.333984 18.9911 18.9892 0.335938 42.0007 0.335938C65.0121 0.335938 83.6673 18.9911 83.6673 42.0026C83.6673 49.6484 81.6017 56.9995 77.7507 63.4162ZM28.5809 39.8005L36.8173 48.0026L55.4142 29.3776C55.9999 28.7911 56.7946 28.4613 57.6234 28.4607C58.4523 28.4601 59.2475 28.7888 59.834 29.3745C60.4205 29.9602 60.7503 30.7549 60.7509 31.5837C60.7515 32.4126 60.4228 33.2078 59.8371 33.7943L39.035 54.6276C38.4499 55.2137 37.6561 55.5435 36.828 55.5447C35.9999 55.5458 35.2051 55.2182 34.6184 54.6339L24.1704 44.2286C23.8759 43.9399 23.6415 43.5957 23.4806 43.2159C23.3198 42.8361 23.2357 42.4282 23.2332 42.0158C23.2308 41.6033 23.31 41.1945 23.4663 40.8128C23.6226 40.4311 23.853 40.0841 24.144 39.7919C24.4351 39.4997 24.7811 39.2679 25.1622 39.1101C25.5433 38.9522 25.9518 38.8714 26.3642 38.8722C26.7767 38.873 27.1849 38.9554 27.5654 39.1148C27.9458 39.2741 28.2909 39.5072 28.5809 39.8005Z" fill="#03D73E"/>
</svg>
