<svg width="17" height="18" viewBox="0 0 17 18" fill="none" xmlns="http://www.w3.org/2000/svg">
<path d="M14.6401 11.6562C14.7498 11.6562 14.8576 11.6851 14.9526 11.74C15.0476 11.7948 15.1265 11.8737 15.1814 11.9688L16.5783 14.3884C16.6332 14.4834 16.6621 14.5912 16.6621 14.7009C16.6621 14.8106 16.6332 14.9184 16.5783 15.0134L15.1814 17.433C15.1265 17.528 15.0476 17.6069 14.9526 17.6618C14.8576 17.7166 14.7498 17.7455 14.6401 17.7455H11.8462C11.7365 17.7455 11.6287 17.7166 11.5337 17.6618C11.4387 17.6069 11.3598 17.528 11.3049 17.433L9.90795 15.0134C9.8531 14.9184 9.82421 14.8106 9.82421 14.7009C9.82421 14.5912 9.8531 14.4834 9.90795 14.3884L11.3049 11.9688C11.3598 11.8737 11.4387 11.7948 11.5337 11.74C11.6287 11.6851 11.7365 11.6562 11.8462 11.6562H14.6401ZM8.00037 9.01953C9.65107 9.01953 11.1819 9.53275 12.442 10.4083L11.1185 10.4085C11.0085 10.4085 10.9004 10.4375 10.8052 10.4927C10.71 10.5478 10.6311 10.6272 10.5763 10.7226L8.4718 14.3926C8.41759 14.4871 8.38904 14.5942 8.38899 14.7032C8.38893 14.8121 8.41736 14.9192 8.47147 15.0138L9.50027 16.8125H0.858516L0.849023 16.8124C0.508613 16.8069 0.234375 16.5292 0.234375 16.1875C0.234375 16.1584 0.236348 16.1297 0.240195 16.1017L0.239473 16.1008C0.598906 12.1304 3.93635 9.01953 8.00037 9.01953ZM13.2422 13.5312C12.595 13.5312 12.0703 14.0559 12.0703 14.7031C12.0703 15.3503 12.595 15.875 13.2422 15.875C13.8894 15.875 14.414 15.3503 14.414 14.7031C14.414 14.0559 13.8894 13.5312 13.2422 13.5312ZM8.01014 0.25C10.4318 0.25 12.3949 2.21312 12.3949 4.63477C12.3949 7.05641 10.4318 9.01953 8.01014 9.01953C5.5885 9.01953 3.62537 7.05641 3.62537 4.63477C3.62537 2.21312 5.5885 0.25 8.01014 0.25Z" fill="white"/>
</svg>
