<svg width="16" height="16" viewBox="0 0 16 16" fill="none" xmlns="http://www.w3.org/2000/svg">
<path d="M16 8L8.20287 0.085151C8.14913 0.0306275 8.07626 -6.94744e-07 8.00029 -7.01406e-07C7.92431 -7.08068e-07 7.85144 0.0306275 7.79771 0.085151L6.98682 0.907639C6.96013 0.934655 6.93896 0.966749 6.92452 1.00208C6.91007 1.03742 6.90264 1.0753 6.90264 1.11355C6.90264 1.15181 6.91007 1.18969 6.92452 1.22502C6.93896 1.26035 6.96013 1.29245 6.98682 1.31947L12.7095 7.12749L4.29799 7.12749C4.222 7.12749 4.14912 7.15813 4.09538 7.21267C4.04165 7.26721 4.01146 7.34119 4.01146 7.41832L4.01146 8.58167C4.01146 8.65881 4.04165 8.73278 4.09538 8.78733C4.14912 8.84187 4.222 8.87251 4.29799 8.87251L12.7095 8.87251L6.98682 14.6805C6.96013 14.7075 6.93896 14.7396 6.92452 14.775C6.91007 14.8103 6.90264 14.8482 6.90264 14.8864C6.90264 14.9247 6.91007 14.9626 6.92452 14.9979C6.93896 15.0332 6.96013 15.0653 6.98682 15.0924L7.79771 15.9148C7.85144 15.9694 7.92431 16 8.00029 16C8.07626 16 8.14913 15.9694 8.20286 15.9148L16 8ZM2.29226 8.58167C2.29226 8.65881 2.26208 8.73278 2.20834 8.78733C2.1546 8.84187 2.08172 8.87251 2.00573 8.87251L0.286531 8.87251C0.210539 8.87251 0.137658 8.84187 0.0839221 8.78733C0.0301873 8.73278 -3.17478e-06 8.65881 -3.16806e-06 8.58167L-3.06666e-06 7.41832C-3.05993e-06 7.34119 0.0301874 7.26721 0.0839222 7.21267C0.137658 7.15813 0.210539 7.12749 0.286531 7.12749L2.00573 7.12749C2.08172 7.12749 2.1546 7.15813 2.20834 7.21267C2.26208 7.26721 2.29226 7.34119 2.29226 7.41832L2.29226 8.58167Z" fill="#F33928"/>
</svg>
