<svg width="20" height="20" viewBox="0 0 20 20" fill="none" xmlns="http://www.w3.org/2000/svg">
<path d="M20 10L10.2536 0.106439C10.1864 0.0382834 10.0953 -8.68431e-07 10.0004 -8.76758e-07C9.90539 -8.85085e-07 9.8143 0.0382834 9.74714 0.106439L8.73352 1.13455C8.70017 1.16832 8.6737 1.20844 8.65565 1.2526C8.63759 1.29677 8.6283 1.34412 8.6283 1.39194C8.6283 1.43976 8.63759 1.48711 8.65565 1.53128C8.6737 1.57544 8.70017 1.61556 8.73352 1.64933L15.8868 8.90936L5.37249 8.90936C5.2775 8.90936 5.1864 8.94766 5.11923 9.01584C5.05206 9.08402 5.01433 9.17649 5.01433 9.27291L5.01433 10.7271C5.01433 10.8235 5.05206 10.916 5.11923 10.9842C5.1864 11.0523 5.2775 11.0906 5.37249 11.0906L15.8868 11.0906L8.73352 18.3507C8.70017 18.3844 8.6737 18.4246 8.65565 18.4687C8.63759 18.5129 8.6283 18.5602 8.6283 18.6081C8.6283 18.6559 8.63759 18.7032 8.65565 18.7474C8.6737 18.7916 8.70017 18.8317 8.73352 18.8654L9.74713 19.8936C9.8143 19.9617 9.90538 20 10.0004 20C10.0953 20 10.1864 19.9617 10.2536 19.8936L20 10ZM2.86533 10.7271C2.86533 10.8235 2.82759 10.916 2.76042 10.9842C2.69326 11.0523 2.60215 11.0906 2.50716 11.0906L0.358165 11.0906C0.263173 11.0906 0.172072 11.0523 0.104903 10.9842C0.0377339 10.916 -3.01481e-06 10.8235 -3.0064e-06 10.7271L-2.87964e-06 9.27291C-2.87124e-06 9.17649 0.037734 9.08402 0.104903 9.01584C0.172072 8.94766 0.263173 8.90936 0.358165 8.90936L2.50716 8.90936C2.60215 8.90936 2.69326 8.94766 2.76042 9.01584C2.82759 9.08402 2.86533 9.17649 2.86533 9.27291L2.86533 10.7271Z" fill="white"/>
</svg>
